<svg id="Calque_1" data-name="Calque 1" xmlns="http://www.w3.org/2000/svg" viewBox="0 0 239.09 250.3"><defs><style>.cls-1{fill:#cce6d7;}.cls-2{fill:#ca478f;}.cls-3{fill:#f9dd51;}.cls-4{fill:#e8569a;}.cls-5{fill:#ed7941;}.cls-6{fill:#e62740;}.cls-7{fill:#e63522;}.cls-8{fill:#ea515c;}.cls-9{fill:#60c0c4;}.cls-10{font-size:44.85px;fill:#51b0e3;font-family:ShowcardGothic-Reg, Showcard Gothic;}.cls-11{fill:#f8dc51;opacity:0.7;}</style></defs><path class="cls-1" d="M834.54,535v80.48a16.51,16.51,0,0,1-33,0V529.59a16,16,0,0,0,18.74,12.71,15.84,15.84,0,0,0,4.93-1.82Z" transform="translate(-777.42 -465.7)"/><path class="cls-2" d="M834.54,526.64v8.41l-9.34,5.45a16,16,0,0,1-21.85-6,16.36,16.36,0,0,1-1.82-4.93v-3a16.7,16.7,0,0,1,7.85-14.21l.1-.07.83-.49h0a16.36,16.36,0,0,1,19.34,3A16.68,16.68,0,0,1,834.54,526.64Z" transform="translate(-777.42 -465.7)"/><path class="cls-3" d="M809.22,512.52l.16-.09a16.68,16.68,0,0,0-7.85,14.21v3A16.2,16.2,0,0,1,809.22,512.52Z" transform="translate(-777.42 -465.7)"/><path class="cls-4" d="M881.29,474.74a16.25,16.25,0,0,0,5.82,22.07l6.44,3.75-59,34.47v-8.39a16.73,16.73,0,0,0-4.84-11.81,16.36,16.36,0,0,0-19.33-3l75.3-44a15.78,15.78,0,0,1,17.44,1,15.86,15.86,0,0,0-21.69,5.72Z" transform="translate(-777.42 -465.7)"/><path class="cls-5" d="M987.3,530.27v86a16.31,16.31,0,0,1-16.21,16.4h-.48a16.29,16.29,0,0,1-16.19-16.4h0V536.1l9.13,5.35a15.76,15.76,0,0,0,8,2.17,16.14,16.14,0,0,0,15.78-13.35Z" transform="translate(-777.42 -465.7)"/><path class="cls-6" d="M909.63,481.84a16.18,16.18,0,0,1-8,14l-8.07,4.71-6.44-3.75a16.26,16.26,0,0,1-5.81-22.07,15.87,15.87,0,0,1,21.62-6l.13.08h0a15.89,15.89,0,0,1,4.39,5A16.24,16.24,0,0,1,909.63,481.84Z" transform="translate(-777.42 -465.7)"/><path class="cls-7" d="M987.3,527.47v2.8a16.15,16.15,0,0,1-15.78,13.34,15.72,15.72,0,0,1-8-2.17l-9.14-5.35v-8.62a16.29,16.29,0,0,1,16.19-16.39h.48a16.29,16.29,0,0,1,16.22,16.37Z" transform="translate(-777.42 -465.7)"/><path class="cls-8" d="M987.3,530.27v-2.8a16.29,16.29,0,0,0-16.2-16.39h-.49a16.28,16.28,0,0,0-16.19,16.38h0v8.62l-60.85-35.53,8.07-4.72a16.27,16.27,0,0,0,5.82-22.07,15.89,15.89,0,0,0-4.39-5l76.42,44.63A16.22,16.22,0,0,1,987.3,530.27Z" transform="translate(-777.42 -465.7)"/><ellipse class="cls-5" cx="101.28" cy="99.37" rx="13.53" ry="14.05"/><ellipse class="cls-3" cx="133.07" cy="98.62" rx="13.53" ry="14.05"/><ellipse class="cls-9" cx="133.7" cy="137.16" rx="13.53" ry="14.05"/><ellipse class="cls-1" cx="100.24" cy="137.16" rx="13.53" ry="14.05"/><text class="cls-10" transform="translate(0 230.24)">Kids<tspan class="cls-11" x="103.87" y="0">home</tspan></text></svg>